<svg width="107" height="24" viewBox="0 0 107 24" fill="none" xmlns="http://www.w3.org/2000/svg">
<g filter="url(#filter0_f_38_43)">
<path d="M21.2887 6.94434V9.29579C21.2887 10.1355 21.1845 10.8861 20.9761 11.5476C20.7707 12.2091 20.4898 12.792 20.1333 13.2964C19.7799 13.8009 19.3722 14.2328 18.91 14.5922C18.4479 14.9487 17.9646 15.2431 17.4602 15.4757C16.9558 15.7083 16.4453 15.8759 15.9288 15.9786C15.4153 16.0813 14.932 16.1327 14.479 16.1327L22.1676 22.7748H16.477L8.80194 16.1327H6.15146V12.4537H14.479C14.9411 12.4145 15.364 12.3178 15.7476 12.1638C16.1282 12.0067 16.4574 11.7968 16.7353 11.534C17.0162 11.2682 17.2321 10.9495 17.3832 10.578C17.5342 10.2035 17.6097 9.77605 17.6097 9.29579V6.97152C17.6097 6.76613 17.5825 6.60906 17.5282 6.50033C17.4768 6.39159 17.4119 6.31154 17.3333 6.26019C17.2518 6.20583 17.1657 6.17411 17.0751 6.16505C16.9875 6.15599 16.9059 6.15146 16.8304 6.15146H4.67896V22.7748H1V4.32557C1 4.07184 1.04682 3.83172 1.14045 3.60518C1.23409 3.37864 1.36397 3.17929 1.5301 3.00712C1.69622 2.83797 1.89256 2.70658 2.11909 2.61295C2.34563 2.51931 2.59029 2.47249 2.85307 2.47249H16.8304C17.652 2.47249 18.3452 2.6205 18.91 2.9165C19.4779 3.21553 19.9385 3.58857 20.2919 4.0356C20.6453 4.48263 20.899 4.96591 21.0531 5.48544C21.2101 6.00496 21.2887 6.49126 21.2887 6.94434ZM41.2375 7.4699V20.9217C41.2375 21.1845 41.1907 21.4291 41.0971 21.6557C41.0035 21.8822 40.8736 22.0785 40.7074 22.2447C40.5413 22.4078 40.348 22.5376 40.1275 22.6343C39.904 22.7279 39.6654 22.7748 39.4116 22.7748H31.0887C30.6356 22.7748 30.1508 22.7234 29.6343 22.6207C29.1208 22.515 28.6134 22.3474 28.112 22.1178C27.6136 21.8852 27.1303 21.5922 26.6621 21.2388C26.194 20.8854 25.7862 20.4565 25.4388 19.9521C25.0885 19.4447 24.8076 18.8617 24.5961 18.2032C24.3817 17.5417 24.2744 16.7957 24.2744 15.965V7.4699H27.9579V15.965C27.9579 16.4453 28.041 16.8772 28.2071 17.2608C28.3702 17.6414 28.5937 17.9691 28.8777 18.244C29.1616 18.5189 29.4938 18.7288 29.8744 18.8738C30.258 19.0188 30.6718 19.0913 31.1159 19.0913H37.5586V7.4699H41.2375ZM60.4932 12.5398V17.7049C60.4932 18.2153 60.4041 18.765 60.2259 19.354C60.0447 19.9461 59.7547 20.4943 59.356 20.9987C58.9543 21.5031 58.4302 21.9245 57.7838 22.2628C57.1374 22.6041 56.3506 22.7748 55.4233 22.7748H48.7858C48.2753 22.7748 47.7256 22.6857 47.1366 22.5074C46.5446 22.3262 45.9963 22.0347 45.4919 21.633C44.9875 21.2343 44.5661 20.7118 44.2278 20.0654C43.8865 19.416 43.7159 18.6291 43.7159 17.7049C43.7159 17.1944 43.805 16.6432 43.9832 16.0511C44.1644 15.4561 44.4559 14.9064 44.8576 14.4019C45.2563 13.8945 45.7789 13.4716 46.4252 13.1333C47.0746 12.792 47.8615 12.6214 48.7858 12.6214H55.4233V16.1327H48.7858C48.2844 16.1327 47.8977 16.2867 47.6259 16.5948C47.351 16.8999 47.2136 17.279 47.2136 17.732C47.2136 18.2153 47.3722 18.5914 47.6893 18.8602C48.0034 19.129 48.378 19.2634 48.8129 19.2634H55.4233C55.9247 19.2634 56.3128 19.1124 56.5877 18.8104C56.8595 18.5083 56.9955 18.1307 56.9955 17.6777V12.5398C56.9955 12.0565 56.8475 11.6729 56.5515 11.389C56.2524 11.1081 55.8764 10.9676 55.4233 10.9676H47.3405V7.4699H55.4233C55.9338 7.4699 56.4835 7.55901 57.0725 7.73722C57.6645 7.91845 58.2127 8.20841 58.7172 8.60712C59.2216 9.00885 59.6444 9.5329 59.9858 10.1793C60.3241 10.8257 60.4932 11.6125 60.4932 12.5398ZM80.4285 1V17.6052C80.4285 18.2395 80.3484 18.8088 80.1883 19.3133C80.0283 19.8177 79.8153 20.2617 79.5495 20.6453C79.2867 21.0259 78.9801 21.3506 78.6298 21.6194C78.2824 21.8882 77.9169 22.1087 77.5333 22.2809C77.1527 22.4501 76.7661 22.5739 76.3735 22.6524C75.9808 22.734 75.6108 22.7748 75.2634 22.7748H68.6214C67.9901 22.7748 67.4237 22.6947 66.9223 22.5346C66.4209 22.3745 65.9799 22.1601 65.5993 21.8913C65.2158 21.6224 64.8895 21.3128 64.6207 20.9625C64.3519 20.6121 64.1329 20.2466 63.9638 19.866C63.7946 19.4824 63.6693 19.0958 63.5877 18.7062C63.5061 18.3135 63.4654 17.9465 63.4654 17.6052V12.6214C63.4654 11.679 63.6375 10.88 63.9819 10.2246C64.3292 9.56613 64.7597 9.03301 65.2731 8.62524C65.7866 8.21446 66.3454 7.91845 66.9495 7.73722C67.5536 7.55901 68.1109 7.4699 68.6214 7.4699H75.2634V11.1489H68.6485C68.1592 11.1489 67.7862 11.2742 67.5294 11.5249C67.2757 11.7756 67.1489 12.1411 67.1489 12.6214V17.578C67.1489 18.0794 67.2742 18.457 67.5249 18.7107C67.7756 18.9644 68.1411 19.0913 68.6214 19.0913H75.2634C75.7618 19.0913 76.1333 18.9644 76.378 18.7107C76.6257 18.457 76.7495 18.0885 76.7495 17.6052V1H80.4285ZM87.6777 1V4.32557H83.9987V1H87.6777ZM87.6777 7.4699V22.7748H83.9987V7.4699H87.6777ZM106 17.6052C106 18.2395 105.92 18.8088 105.76 19.3133C105.6 19.8177 105.387 20.2617 105.121 20.6453C104.858 21.0259 104.552 21.3506 104.201 21.6194C103.851 21.8882 103.485 22.1087 103.105 22.2809C102.721 22.4501 102.335 22.5739 101.945 22.6524C101.552 22.734 101.181 22.7748 100.83 22.7748H90.8628V19.0913H100.803C101.305 19.0913 101.682 18.9644 101.936 18.7107C102.19 18.457 102.316 18.0885 102.316 17.6052C102.271 16.6235 101.776 16.1327 100.83 16.1327H95.1262C94.3137 16.1327 93.625 15.9922 93.0602 15.7113C92.4923 15.4274 92.0317 15.0725 91.6783 14.6466C91.3249 14.2237 91.0697 13.7661 90.9126 13.2738C90.7586 12.7845 90.6815 12.3269 90.6815 11.901C90.6815 11.0794 90.828 10.3877 91.121 9.82589C91.411 9.26408 91.778 8.80949 92.222 8.46214C92.666 8.11176 93.1478 7.85804 93.6673 7.70097C94.1868 7.54693 94.6731 7.4699 95.1262 7.4699H104.174V11.1489H95.1534C94.9661 11.1489 94.8181 11.17 94.7094 11.2123C94.6006 11.2546 94.5206 11.312 94.4693 11.3845C94.4149 11.4539 94.3832 11.5295 94.3741 11.611C94.365 11.6895 94.3605 11.7666 94.3605 11.8421C94.3696 11.9931 94.3983 12.1124 94.4466 12.2C94.4949 12.2846 94.5538 12.345 94.6233 12.3812C94.6928 12.4205 94.7728 12.4416 94.8634 12.4447C94.954 12.4507 95.0416 12.4537 95.1262 12.4537H100.83C101.776 12.4537 102.579 12.6229 103.241 12.9612C103.899 13.3025 104.432 13.7299 104.84 14.2434C105.245 14.7569 105.539 15.3156 105.724 15.9197C105.908 16.5238 106 17.0857 106 17.6052Z" fill="white"/>
</g>
<defs>
<filter id="filter0_f_38_43" x="0.6" y="0.6" width="105.8" height="22.5747" filterUnits="userSpaceOnUse" color-interpolation-filters="sRGB">
<feFlood flood-opacity="0" result="BackgroundImageFix"/>
<feBlend mode="normal" in="SourceGraphic" in2="BackgroundImageFix" result="shape"/>
<feGaussianBlur stdDeviation="0.2" result="effect1_foregroundBlur_38_43"/>
</filter>
</defs>
</svg>
